<svg xmlns="http://www.w3.org/2000/svg" width="1024" height="1024" viewBox="0 0 1024 1024" fill="none" stroke="#172b3a" stroke-width="33.8" stroke-linecap="round" stroke-linejoin="round">
  <path d="M490.7 281.1L593.1 166.3A126 126 0 0 1 781.1 334L678.7 448.8A126 126 0 0 1 490.7 281.1Z"/>
  <path d="M321.2 476L431.2 363.5A117.6 117.6 0 0 1 599.5 527.8L489.6 640.4A117.6 117.6 0 0 1 321.2 476Z"/>
  <path d="M134.1 657.6L243.7 546.4A127 127 0 0 1 424.5 724.6L315 835.8A127 127 0 0 1 134.1 657.6Z"/>
  <path d="M643.2 680L643.5 667.2A163.8 163.8 0 0 1 807.3 506.5H947M867.2 586.4L947 506.5L867.2 426.7"/>
</svg>
