<svg xmlns="http://www.w3.org/2000/svg" viewBox="0 0 900 900" width="900" height="900"><defs><clipPath id="alignment-17916273970097648236">
<path d="M133.54779286874881,163.32886314008718 C133.5478428687488,163.32886314008715 342.63739950166234,163.1930124456426 342.63739950166234,163.1930124456426 C342.63739950166234,163.1930124456426 341.6529682294821,196.1189564560595 341.6529682294821,196.11895645605946 C341.6529682294821,196.11895645605944 267.43074600725964,196.11895645605935 267.43074600725964,196.11895645605935 C267.43074600725964,196.11895645605935 458.1715229169823,634.8967342338381 458.1715229169823,634.8967342338381 C458.1715229169823,634.8967342338381 638.6744365387007,196.48931778418446 638.0818801150893,196.48931778418446 C637.489323691478,196.48931778418446 575.8381895836498,196.48931778418435 575.8381895836498,196.48931778418435 C575.8381895836498,196.48931778418435 575.8226208558298,163.1930124456425 575.8226208558298,163.1930124456425 C575.8226208558298,163.1930124456425 744.393745139206,163.1930124456425 744.393745139206,163.1930124456425 C744.393745139206,163.1930124456425 744.393745139206,195.7115400064069 744.393745139206,195.71154000640675 C744.393745139206,195.7115400064066 686.9121913197611,195.71154000640664 686.9121913197611,195.71154000640664 C686.9121913197611,195.71154000640664 452.83818958364907,764.8226782442555 452.83818958364907,764.8226782442555 C452.83818958364907,764.8226782442555 193.87519045170387,196.23006756717055 193.87519045170387,196.23006756717055 C193.87519045170387,196.23006756717055 133.65301822948138,196.23006756717055 133.65301822948138,196.23006756717055 C133.65301822948138,196.23006756717055 133.54779286874881,163.32886314008718 133.54779286874881,163.32886314008718 Z" fill="#000000"/></clipPath></defs><g>
<g>
	<g>
		<path d="M-0.0000000000018758328224066645,-0.000000000004888534022029489 L900.0000000000016,-0.000000000004888534022029489 L900.0000000000016,899.9999999999995 L-0.0000000000018758328224066645,899.9999999999995 L-0.0000000000018758328224066645,-0.000000000004888534022029489 Z" transform="matrix(1,0,0,1,0,0)" fill="#102b39" stroke="#000000" stroke-width="2"/>
	</g>
	<g>
		<path d="M133.54779286874881,163.32886314008718 C133.5478428687488,163.32886314008715 342.63739950166234,163.1930124456426 342.63739950166234,163.1930124456426 C342.63739950166234,163.1930124456426 341.6529682294821,196.1189564560595 341.6529682294821,196.11895645605946 C341.6529682294821,196.11895645605944 267.43074600725964,196.11895645605935 267.43074600725964,196.11895645605935 C267.43074600725964,196.11895645605935 458.1715229169823,634.8967342338381 458.1715229169823,634.8967342338381 C458.1715229169823,634.8967342338381 638.6744365387007,196.48931778418446 638.0818801150893,196.48931778418446 C637.489323691478,196.48931778418446 575.8381895836498,196.48931778418435 575.8381895836498,196.48931778418435 C575.8381895836498,196.48931778418435 575.8226208558298,163.1930124456425 575.8226208558298,163.1930124456425 C575.8226208558298,163.1930124456425 744.393745139206,163.1930124456425 744.393745139206,163.1930124456425 C744.393745139206,163.1930124456425 744.393745139206,195.7115400064069 744.393745139206,195.71154000640675 C744.393745139206,195.7115400064066 686.9121913197611,195.71154000640664 686.9121913197611,195.71154000640664 C686.9121913197611,195.71154000640664 452.83818958364907,764.8226782442555 452.83818958364907,764.8226782442555 C452.83818958364907,764.8226782442555 193.87519045170387,196.23006756717055 193.87519045170387,196.23006756717055 C193.87519045170387,196.23006756717055 133.65301822948138,196.23006756717055 133.65301822948138,196.23006756717055 C133.65301822948138,196.23006756717055 133.54779286874881,163.32886314008718 133.54779286874881,163.32886314008718 Z" fill="#ffffff"/>
		<path d="M133.54779286874881,163.32886314008718 C133.5478428687488,163.32886314008715 342.63739950166234,163.1930124456426 342.63739950166234,163.1930124456426 C342.63739950166234,163.1930124456426 341.6529682294821,196.1189564560595 341.6529682294821,196.11895645605946 C341.6529682294821,196.11895645605944 267.43074600725964,196.11895645605935 267.43074600725964,196.11895645605935 C267.43074600725964,196.11895645605935 458.1715229169823,634.8967342338381 458.1715229169823,634.8967342338381 C458.1715229169823,634.8967342338381 638.6744365387007,196.48931778418446 638.0818801150893,196.48931778418446 C637.489323691478,196.48931778418446 575.8381895836498,196.48931778418435 575.8381895836498,196.48931778418435 C575.8381895836498,196.48931778418435 575.8226208558298,163.1930124456425 575.8226208558298,163.1930124456425 C575.8226208558298,163.1930124456425 744.393745139206,163.1930124456425 744.393745139206,163.1930124456425 C744.393745139206,163.1930124456425 744.393745139206,195.7115400064069 744.393745139206,195.71154000640675 C744.393745139206,195.7115400064066 686.9121913197611,195.71154000640664 686.9121913197611,195.71154000640664 C686.9121913197611,195.71154000640664 452.83818958364907,764.8226782442555 452.83818958364907,764.8226782442555 C452.83818958364907,764.8226782442555 193.87519045170387,196.23006756717055 193.87519045170387,196.23006756717055 C193.87519045170387,196.23006756717055 133.65301822948138,196.23006756717055 133.65301822948138,196.23006756717055 C133.65301822948138,196.23006756717055 133.54779286874881,163.32886314008718 133.54779286874881,163.32886314008718 Z" clip-path="url(#alignment-17916273970097648236)" fill="none" stroke="#ffffff" stroke-width="4"/>
	</g>
</g></g></svg>