<svg xmlns="http://www.w3.org/2000/svg" viewBox="0 0 899 899" width="899" height="899"><defs></defs><g>
<g>
	<g>
		<path d="M63.91220984,90.42524273000001 C63.91220984,90.42524273000001 136.69137008,531.16051794 136.69137008,531.16051794 C136.69137008,531.16051794 244.67489812,865.84365355 244.67489812,865.84365355 C244.67489812,865.84365355 789.59673997,710.71604938 789.59673997,710.71604938 C789.59673997,710.71604938 846.807506,230.5990012 846.807506,230.5990012 C846.807506,230.5990012 580.9064768000001,22.6709722 580.9064768000001,22.6709722 C580.9064768000001,22.6709722 63.91220984,90.42524273000001 63.91220984,90.42524273000001 ZM224.39506173,565.72839506 C224.39506173,565.72839506 379.50204174,530.92828202 379.50204174,530.92828202 C379.50204174,530.92828202 419.63034408,610.32647462 419.63034408,610.32647462 C419.63034408,610.32647462 254.68313561,650.27160494 254.68313561,650.27160494 C254.68313561,650.27160494 224.39506173,565.72839506 224.39506173,565.72839506 ZM171.72016662000001,338.17283951 C171.72016662000001,338.17283951 476.70782697,283.39096258 476.70782697,283.39096258 C476.70782697,283.39096258 589.16874035,421.13580247 589.16874035,421.13580247 C589.16874035,421.13580247 410.07407407,458.79836998 409.81071566,458.79836998 C409.54735725,458.79836998 367.144049,386.63375289 366.88066647,386.63375289 C366.61728395,386.63375289 203.32511092000001,417.44856771 202.53498746,417.97530864000004 C201.744864,418.50204958 171.72016662000001,338.17283951 171.72016662000001,338.17283951 ZM119.57201847,130.63375289 C119.57201847,130.63375289 566.51851852,71.63787616 566.51851852,71.63787616 C566.51851852,71.63787616 781.6954571800001,241.51441937 781.43209877,241.51441937 C781.16874035,241.51441937 590.22222222,276.01644483 590.22222222,275.48972801 C590.22222222,274.96301119000003 474.60083912,154.86419753 474.60083912,154.86419753 C474.60083912,154.86419753 150.91358025,203.0617284 150.91358025,203.0617284 C150.91358025,203.0617284 119.57201847,130.63375289 119.57201847,130.63375289 Z" fill="#172b3a" stroke="#172b3a" stroke-width="2"/>
	</g>
</g></g></svg>